<svg width="61" height="61" viewBox="0 0 61 61" fill="none" xmlns="http://www.w3.org/2000/svg">
<path fill-rule="evenodd" clip-rule="evenodd" d="M37.3403 14.1537H22.9403C17.6384 14.1537 13.3403 18.4518 13.3403 23.7537V38.1537C13.3403 43.4555 17.6384 47.7537 22.9403 47.7537H37.3403C42.6422 47.7537 46.9403 43.4555 46.9403 38.1537V23.7537C46.9403 18.4518 42.6422 14.1537 37.3403 14.1537Z" stroke="white" stroke-width="3.6" stroke-linecap="round" stroke-linejoin="round"/>
<path fill-rule="evenodd" clip-rule="evenodd" d="M30.1399 38.1538C26.1634 38.1538 22.9399 34.9303 22.9399 30.9538C22.9399 26.9772 26.1634 23.7538 30.1399 23.7538C34.1165 23.7538 37.3399 26.9772 37.3399 30.9538C37.3399 32.8632 36.5813 34.6947 35.2311 36.0449C33.8808 37.3951 32.0494 38.1538 30.1399 38.1538Z" stroke="white" stroke-width="3.6" stroke-linecap="round" stroke-linejoin="round"/>
<path d="M39.7403 18.9538C38.4148 18.9538 37.3403 20.0283 37.3403 21.3538C37.3403 22.6793 38.4148 23.7538 39.7403 23.7538C41.0658 23.7538 42.1403 22.6793 42.1403 21.3538C42.1403 20.0283 41.0658 18.9538 39.7403 18.9538Z" fill="white"/>
<path d="M39.74 20.1537C39.0773 20.1537 38.54 20.691 38.54 21.3537C38.54 22.0165 39.0773 22.5537 39.74 22.5537C40.4028 22.5537 40.94 22.0165 40.94 21.3537C40.94 20.691 40.4028 20.1537 39.74 20.1537Z" stroke="white" stroke-width="2.4" stroke-linecap="round"/>
</svg>
