<svg width="60" height="60" viewBox="0 0 60 60" fill="none" xmlns="http://www.w3.org/2000/svg">
<path d="M30.5 33.7222V37.5M20.8125 25.2766C21.7259 25.2222 22.8519 25.2222 24.3 25.2222H36.7C38.1481 25.2222 39.2742 25.2222 40.1875 25.2766M20.8125 25.2766C19.6726 25.3444 18.8639 25.4971 18.1737 25.8399C17.08 26.3831 16.1908 27.2499 15.6335 28.3162C15 29.5285 15 31.1152 15 34.2889V36.9333C15 40.107 15 41.6937 15.6335 42.906C16.1908 43.9723 17.08 44.8391 18.1737 45.3823C19.417 46 21.0447 46 24.3 46H36.7C39.9554 46 41.5829 46 42.8264 45.3823C43.9201 44.8391 44.8092 43.9723 45.3664 42.906C46 41.6937 46 40.107 46 36.9333V34.2889C46 31.1152 46 29.5285 45.3664 28.3162C44.8092 27.2499 43.9201 26.3831 42.8264 25.8399C42.136 25.4971 41.3273 25.3444 40.1875 25.2766M20.8125 25.2766V21.4444C20.8125 16.2284 25.1497 12 30.5 12C35.8502 12 40.1875 16.2284 40.1875 21.4444V25.2766" stroke="white" stroke-width="2" stroke-linecap="round" stroke-linejoin="round"/>
</svg>
