<svg width="60" height="60" viewBox="0 0 60 60" fill="none" xmlns="http://www.w3.org/2000/svg">
<path d="M35.7326 34.2907C38.531 31.4923 38.531 26.9552 35.7326 24.1568C32.9342 21.3584 28.3971 21.3584 25.5987 24.1568C22.8003 26.9552 22.8003 31.4923 25.5987 34.2907C28.3971 37.0891 32.9342 37.0891 35.7326 34.2907Z" stroke="white" stroke-width="2" stroke-linecap="round" stroke-linejoin="round"/>
<path d="M43.3326 41.8911C50.3286 34.8951 50.3286 23.5524 43.3326 16.5564C36.3366 9.56041 24.9939 9.56041 17.9979 16.5564C11.0019 23.5524 11.0019 34.8951 17.9979 41.8911C24.9939 48.8871 36.3366 48.8871 43.3326 41.8911Z" stroke="white" stroke-width="2" stroke-linecap="round" stroke-linejoin="round"/>
<path d="M18 17L25.5 23.5" stroke="white" stroke-width="2" stroke-linecap="round" stroke-linejoin="round"/>
<path d="M36 24L43 17" stroke="white" stroke-width="2" stroke-linecap="round" stroke-linejoin="round"/>
<path d="M36 34L43 42" stroke="white" stroke-width="2" stroke-linecap="round" stroke-linejoin="round"/>
<path d="M25 35L18 42" stroke="white" stroke-width="2" stroke-linecap="round" stroke-linejoin="round"/>
</svg>
