<svg width="60" height="61" viewBox="0 0 60 61" fill="none" xmlns="http://www.w3.org/2000/svg">
<path d="M20.7728 24.01C20.9584 22.5414 22.867 20.5455 24.3817 20.7669L24.3793 20.7645C25.8533 21.0446 27.0202 23.5817 27.6782 24.7226C28.1444 25.5503 27.8417 26.3889 27.4068 26.7428C26.8202 27.2156 25.9029 27.868 26.0953 28.523C26.4375 29.6875 30.5 33.75 32.4981 34.9049C33.2544 35.342 33.8028 34.1891 34.2711 33.5984C34.6114 33.144 35.4507 32.8725 36.2766 33.321C37.5099 34.0393 38.6718 34.874 39.7463 35.8138C40.2828 36.2623 40.4088 36.9251 40.037 37.6256C39.3821 38.8595 37.488 40.4866 36.1131 40.1559C33.7117 39.5786 24 35.8138 20.8805 24.9068C20.7051 24.3908 20.7493 24.1957 20.7728 24.01Z" fill="white"/>
<path fill-rule="evenodd" clip-rule="evenodd" d="M30.5 48.375C28.5116 48.375 27.4115 48.1616 25.625 47.5625L22.2034 49.2733C20.0425 50.3538 17.5 48.7824 17.5 46.3663V42.6875C14.0006 39.4245 12.625 35.6621 12.625 30.5C12.625 20.6279 20.6279 12.625 30.5 12.625C40.372 12.625 48.375 20.6279 48.375 30.5C48.375 40.372 40.372 48.375 30.5 48.375ZM20.75 41.2742L19.7164 40.3104C16.9977 37.7754 15.875 34.9413 15.875 30.5C15.875 22.4228 22.4228 15.875 30.5 15.875C38.5772 15.875 45.125 22.4228 45.125 30.5C45.125 38.5772 38.5772 45.125 30.5 45.125C28.8982 45.125 28.147 44.9804 26.6584 44.4812L25.3788 44.052L20.75 46.3663V41.2742Z" fill="white"/>
</svg>
