<svg width="42" height="42" viewBox="0 0 42 42" fill="none" xmlns="http://www.w3.org/2000/svg">
<g clip-path="url(#clip0_2025_154)">
<mask id="mask0_2025_154" style="mask-type:luminance" maskUnits="userSpaceOnUse" x="0" y="0" width="42" height="42">
<path d="M41.6569 21.0001C41.6569 9.61779 32.4297 0.390625 21.0474 0.390625C9.66515 0.390625 0.437988 9.61779 0.437988 21.0001C0.437988 32.3823 9.66515 41.6095 21.0474 41.6095C32.4297 41.6095 41.6569 32.3823 41.6569 21.0001Z" fill="white"/>
</mask>
<g mask="url(#mask0_2025_154)">
<path d="M41.6569 21.0001C41.6569 9.61779 32.4297 0.390625 21.0474 0.390625C9.66515 0.390625 0.437988 9.61779 0.437988 21.0001C0.437988 32.3823 9.66515 41.6095 21.0474 41.6095C32.4297 41.6095 41.6569 32.3823 41.6569 21.0001Z" fill="white"/>
<mask id="mask1_2025_154" style="mask-type:alpha" maskUnits="userSpaceOnUse" x="0" y="0" width="42" height="42">
<path d="M21.0474 41.6095C32.4297 41.6095 41.6569 32.3823 41.6569 21.0001C41.6569 9.61779 32.4297 0.390625 21.0474 0.390625C9.66515 0.390625 0.437988 9.61779 0.437988 21.0001C0.437988 32.3823 9.66515 41.6095 21.0474 41.6095Z" fill="white"/>
</mask>
<g mask="url(#mask1_2025_154)">
<path d="M0.437988 0.390503H41.6569V41.6094H0.437988V0.390503Z" fill="white"/>
<path d="M21.0474 0.390503H0.437988V22.6036H21.0474V0.390503Z" fill="#231D9A"/>
<path d="M13.751 5.83485L15.3018 4.28406L13.751 2.73326L12.2002 4.28406L13.751 5.83485Z" fill="white"/>
<path d="M13.751 12.1071L15.3018 10.5563L13.751 9.00548L12.2002 10.5563L13.751 12.1071Z" fill="white"/>
<path d="M13.751 18.3793L15.3018 16.8285L13.751 15.2777L12.2002 16.8285L13.751 18.3793Z" fill="white"/>
<path d="M5.47948 5.83485L7.03027 4.28406L5.47948 2.73326L3.92869 4.28406L5.47948 5.83485Z" fill="white"/>
<path d="M5.47948 12.1071L7.03027 10.5563L5.47948 9.00548L3.92869 10.5563L5.47948 12.1071Z" fill="white"/>
<path d="M5.47948 18.3793L7.03027 16.8285L5.47948 15.2777L3.92869 16.8285L5.47948 18.3793Z" fill="white"/>
<path d="M17.8862 8.97084L19.437 7.42004L17.8862 5.86925L16.3354 7.42004L17.8862 8.97084Z" fill="white"/>
<path d="M17.8862 2.69923L19.437 1.14844L17.8862 -0.402356L16.3354 1.14844L17.8862 2.69923Z" fill="white"/>
<path d="M17.8862 15.2431L19.437 13.6923L17.8862 12.1415L16.3354 13.6923L17.8862 15.2431Z" fill="white"/>
<path d="M17.8862 21.5153L19.437 19.9645L17.8862 18.4137L16.3354 19.9645L17.8862 21.5153Z" fill="white"/>
<path d="M9.61473 8.97084L11.1655 7.42004L9.61473 5.86925L8.06394 7.42004L9.61473 8.97084Z" fill="white"/>
<path d="M9.61473 15.2431L11.1655 13.6923L9.61473 12.1415L8.06394 13.6923L9.61473 15.2431Z" fill="white"/>
<path d="M9.61473 21.5153L11.1655 19.9645L9.61473 18.4137L8.06394 19.9645L9.61473 21.5153Z" fill="white"/>
<path d="M1.34423 8.97084L2.89502 7.42004L1.34423 5.86925L-0.206568 7.42004L1.34423 8.97084Z" fill="white"/>
<path d="M1.34423 15.2431L2.89502 13.6923L1.34423 12.1415L-0.206569 13.6923L1.34423 15.2431Z" fill="white"/>
<path d="M1.34423 21.5153L2.89502 19.9645L1.34423 18.4137L-0.206568 19.9645L1.34423 21.5153Z" fill="white"/>
<path d="M51.4776 0.179199H21.0474V3.38238H51.4776V0.179199Z" fill="#F0263C"/>
<path d="M43.4697 6.58569H21.0474V9.78888H43.4697V6.58569Z" fill="#F0263C"/>
<path d="M43.4697 12.9918H21.0474V16.195H43.4697V12.9918Z" fill="#F0263C"/>
<path d="M51.4776 19.3984H21.0474V22.6016H51.4776V19.3984Z" fill="#F0263C"/>
<path d="M51.3174 25.8048H0.867188V29.008H51.3174V25.8048Z" fill="#F0263C"/>
<path d="M51.3174 32.2111H0.867188V35.4142H51.3174V32.2111Z" fill="#F0263C"/>
<path d="M51.3174 38.6176H0.867188V41.8207H51.3174V38.6176Z" fill="#F0263C"/>
</g>
</g>
</g>
<defs>
<clipPath id="clip0_2025_154">
<rect x="0.437988" y="0.390625" width="41.2189" height="41.2189" rx="20.6094" fill="white"/>
</clipPath>
</defs>
</svg>
