<svg width="42" height="42" viewBox="0 0 42 42" fill="none" xmlns="http://www.w3.org/2000/svg">
<g clip-path="url(#clip0_2025_153)">
<mask id="mask0_2025_153" style="mask-type:luminance" maskUnits="userSpaceOnUse" x="0" y="0" width="42" height="42">
<path d="M41.4376 0.390625H0.21875V41.6095H41.4376V0.390625Z" fill="white"/>
</mask>
<g mask="url(#mask0_2025_153)">
<path d="M0.21875 21.0002C0.21875 23.4046 0.648114 25.7232 1.37803 27.87H40.2354C41.0082 25.7232 41.4376 23.4046 41.4376 21.0002C41.4376 18.5957 41.0082 16.2772 40.2784 14.1304H1.37803C0.648114 16.2772 0.21875 18.5957 0.21875 21.0002Z" fill="white"/>
<path d="M1.37891 14.1302H40.2363C37.4454 6.14409 29.8028 0.390625 20.8291 0.390625C11.8553 0.390625 4.2127 6.14409 1.37891 14.1302Z" fill="#78C9FF"/>
<path d="M40.2792 27.8698H1.37891C4.2127 35.8559 11.8553 41.6094 20.8291 41.6094C29.8028 41.6094 37.4454 35.8559 40.2792 27.8698Z" fill="#78C9FF"/>
<path d="M20.8281 26.1524C23.6737 26.1524 25.9805 23.8456 25.9805 21C25.9805 18.1544 23.6737 15.8477 20.8281 15.8477C17.9826 15.8477 15.6758 18.1544 15.6758 21C15.6758 23.8456 17.9826 26.1524 20.8281 26.1524Z" fill="#FFD400"/>
</g>
</g>
<defs>
<clipPath id="clip0_2025_153">
<rect x="0.21875" y="0.390625" width="41.2189" height="41.2189" rx="20.6094" fill="white"/>
</clipPath>
</defs>
</svg>
