<svg width="43" height="42" viewBox="0 0 43 42" fill="none" xmlns="http://www.w3.org/2000/svg">
<g clip-path="url(#clip0_2025_190)">
<mask id="mask0_2025_190" style="mask-type:luminance" maskUnits="userSpaceOnUse" x="0" y="0" width="43" height="42">
<path d="M42.0944 0.390625H0.875488V41.6095H42.0944V0.390625Z" fill="white"/>
</mask>
<g mask="url(#mask0_2025_190)">
<path d="M42.094 21.0001C42.094 9.62192 32.8627 0.390625 21.4846 0.390625C19.0801 0.390625 16.7615 0.819989 14.6147 1.54991V40.4073C16.7615 41.1801 19.0801 41.6095 21.4846 41.6095C32.8627 41.6095 42.094 32.3782 42.094 21.0001Z" fill="#F0263C"/>
<path d="M0.875488 21.0001C0.875488 29.9738 6.62896 37.6165 14.6151 40.4503V1.54993C6.62896 4.38373 0.875488 12.0264 0.875488 21.0001Z" fill="#005B13"/>
<path d="M11.8672 22.8895C11.9101 22.9324 11.953 23.0183 11.996 23.0612C11.953 22.9754 11.9101 22.9324 11.8672 22.8895Z" fill="#FFD400"/>
<path d="M17.2339 23.0612C17.2768 23.0183 17.3197 22.9324 17.3627 22.8895C17.3197 22.9324 17.2768 22.9754 17.2339 23.0612Z" fill="#FFD400"/>
<path d="M14.6148 12.4128C10.3641 12.4128 6.88623 15.8907 6.88623 20.1414C6.88623 24.3921 10.3641 27.8699 14.6148 27.8699C18.8655 27.8699 22.3433 24.3921 22.3433 20.1414C22.3433 15.8907 18.8655 12.4128 14.6148 12.4128ZM20.54 21.0001L19.7242 21.4295C19.6813 21.8159 19.5954 22.1594 19.4665 22.5458L21.3558 21.6012C21.184 22.374 20.8834 23.104 20.497 23.748L19.4237 22.6746C19.3377 22.9752 19.2089 23.2328 19.0372 23.4904L19.7242 24.1774L18.4361 24.3491C18.0926 24.7785 17.7062 25.122 17.2768 25.3796L19.4665 25.079C18.2644 26.1524 16.7616 26.8823 15.0442 26.9683V26.1095C14.9153 26.1095 14.7436 26.1524 14.6148 26.1524C14.486 26.1524 14.3142 26.1524 14.1854 26.1095V26.9683C12.468 26.8823 10.9652 26.1524 9.80587 25.0361L11.9956 25.3366C11.5663 25.0361 11.1799 24.6926 10.8363 24.3062L9.54826 24.1345L10.2353 23.4475C10.1064 23.1898 9.97764 22.8893 9.84883 22.6316L8.7754 23.7051C8.38897 23.061 8.08846 22.3311 7.9167 21.5583L9.80587 22.5028C9.67706 22.1594 9.59121 21.7729 9.54826 21.3865L8.73251 20.9571L9.50536 20.5707C9.50536 20.5278 9.50536 20.5278 9.50536 20.4849V20.1414V19.669L7.78789 20.5278C7.78789 20.399 7.78789 20.2702 7.78789 20.1414C7.78789 19.4973 7.87374 18.8533 8.04551 18.2521L9.50536 19.2397V18.2092L8.7754 17.694L9.50536 17.4364V16.7064V16.5347L8.64659 16.8352C8.90421 16.4059 9.16183 15.9765 9.50536 15.6331V14.989H10.1494C11.2657 14.0014 12.6826 13.4004 14.2283 13.3145V14.989H14.6577H15.087V13.3145C16.6328 13.4004 18.0926 14.0444 19.166 14.989H19.7671V15.5901C20.1106 15.9765 20.3682 16.363 20.6258 16.7923L19.7671 16.4918V16.7064V17.4364L20.497 17.694L19.7671 18.2092V19.2397L21.227 18.2521C21.3987 18.8533 21.4846 19.4973 21.4846 20.1414C21.4846 20.2702 21.4846 20.399 21.4846 20.5278L19.7671 19.669V20.1414V20.5278C19.7671 20.5707 19.7671 20.5707 19.7671 20.6137L20.54 21.0001Z" fill="#FFD400"/>
<path d="M18.0071 21.0001H16.3325V19.2826H18.05V16.7064H15.4738V18.4239H13.7564V16.7064H11.1802V19.2826H12.8977V21.0001H11.2231C11.2231 21.1289 11.266 21.3006 11.309 21.4294V21.4724C11.4378 21.9876 11.6096 22.4599 11.9101 22.8463C11.953 22.8893 11.996 22.9751 12.0389 23.0181C12.2536 23.3186 12.4683 23.5333 12.7688 23.748C12.9405 23.8768 13.1123 23.9627 13.2841 24.0485C13.4129 24.1344 13.5846 24.1773 13.7134 24.2203C13.8852 24.2632 14.0569 24.3062 14.2286 24.3491C14.3574 24.3491 14.4863 24.392 14.658 24.392C14.9586 24.392 15.2162 24.3491 15.4738 24.2632C15.7314 24.1773 15.9891 24.0915 16.2037 23.9627C16.3325 23.8768 16.4184 23.8339 16.5472 23.748C16.8048 23.5333 17.0624 23.2757 17.2772 23.0181C17.3201 22.9751 17.363 22.8893 17.406 22.8463C17.6636 22.417 17.8782 21.9876 18.0071 21.4724V21.4294C17.9641 21.3006 18.0071 21.1289 18.0071 21.0001ZM13.7564 19.2826H15.4738V21.0001H13.7564V19.2826ZM15.4738 23.5763H13.7564V21.8588H15.4738V23.5763Z" fill="white"/>
<path d="M12.0389 15.8477L11.1802 16.7064H13.7564H14.6151L13.7564 15.8477L14.6151 14.9889H14.1857H11.1802L12.0389 15.8477Z" fill="#F0263C"/>
<path d="M18.908 15.8477L18.0493 16.7064V19.2825V20.1413L18.908 19.2825L19.7668 20.1413V19.669V19.2396V18.2091V17.4363V16.7064V16.5346V15.59V14.9889H19.1227H18.0493L18.908 15.8477Z" fill="#F0263C"/>
<path d="M15.4735 15.8477L14.6147 16.7064H15.4735H18.0496L17.1909 15.8477L18.0496 14.9889H15.0441H14.6147L15.4735 15.8477Z" fill="#F0263C"/>
<path d="M11.1799 20.1413V19.2825V16.7064L10.3211 15.8477L11.1799 14.9889H10.1064H9.4624V15.59V16.5346V16.7064V17.4363V18.2091V19.2396V19.669V20.1413L10.3211 19.2825L11.1799 20.1413Z" fill="#F0263C"/>
<path d="M19.7671 20.1414L18.9084 21.0001L18.0496 20.1414V20.5278V21.0001H18.0068C18.0068 21.1289 17.9638 21.3006 17.9208 21.4294V21.4724C17.792 21.9876 17.6203 22.4599 17.3198 22.8463C17.2768 22.8893 17.2339 22.9752 17.1909 23.0181C16.9763 23.3187 16.7616 23.5334 16.461 23.748C16.3322 23.8339 16.2463 23.9198 16.1175 23.9627C15.9029 24.0915 15.6452 24.2204 15.3876 24.2632C15.173 24.3921 14.9153 24.435 14.6148 24.435C14.486 24.435 14.3571 24.435 14.1854 24.3921C14.0137 24.3492 13.8419 24.3062 13.6701 24.2632C13.5413 24.2204 13.3696 24.1344 13.2408 24.0915C13.0691 24.0056 12.8973 23.8768 12.7256 23.791C12.468 23.5763 12.2103 23.3187 11.9956 23.0611C11.9527 23.0181 11.9098 22.9323 11.8668 22.8893C11.6092 22.4599 11.3945 22.0306 11.2657 21.5154V21.4724C11.2228 21.3436 11.2228 21.1718 11.1799 21.043V20.5707V20.1414L10.3211 21.0001L9.4624 20.1414V20.5278C9.4624 20.5707 9.4624 20.5707 9.4624 20.6137C9.4624 20.8713 9.50536 21.1289 9.50536 21.3866C9.54825 21.773 9.63417 22.1165 9.76298 22.5029C9.76298 22.5458 9.76298 22.5887 9.80587 22.5887C9.89179 22.8893 10.0206 23.1469 10.1923 23.4045C10.2782 23.5333 10.3641 23.6622 10.4499 23.791C10.5787 23.9627 10.7075 24.1344 10.8363 24.2632C11.1799 24.6926 11.5663 25.0361 11.9956 25.2937C12.6397 25.7231 13.4125 25.9807 14.1854 26.0666C14.3142 26.0666 14.486 26.1095 14.6148 26.1095C14.7436 26.1095 14.9153 26.1095 15.0441 26.0666C15.817 25.9807 16.5899 25.7231 17.2339 25.2937C17.6632 24.9932 18.0496 24.6497 18.3932 24.2632C18.522 24.0915 18.6508 23.9627 18.7796 23.791C18.8655 23.6622 18.9513 23.5333 19.0372 23.4045C19.166 23.1469 19.2948 22.8463 19.4237 22.5887C19.4237 22.5458 19.4665 22.5029 19.4665 22.5029C19.5954 22.1594 19.6813 21.773 19.7242 21.3866C19.7671 21.1289 19.7671 20.8713 19.7671 20.6137C19.7671 20.5707 19.7671 20.5707 19.7671 20.5278V20.1414ZM12.0386 24.8644L12.8973 24.0056L13.7561 24.8644L12.8973 25.7231L12.0386 24.8644ZM17.1909 24.8644L16.3322 25.7231L15.4735 24.8644L16.3322 24.0056L17.1909 24.8644Z" fill="#F0263C"/>
<path d="M15.4738 18.4239V16.7064H14.6151H13.7563V18.4239H15.4738Z" fill="#231D9A"/>
<path d="M15.4738 19.2826H13.7563V21.0001H15.4738V19.2826Z" fill="#231D9A"/>
<path d="M12.8977 21.0001V19.2826H11.1802V20.1413V20.5277V21.0001H11.2231H12.8977Z" fill="#231D9A"/>
<path d="M18.05 19.2826H16.3325V21.0001H18.007H18.05V20.5277V20.1413V19.2826Z" fill="#231D9A"/>
<path d="M15.4738 21.8588H13.7563V23.5762H15.4738V21.8588Z" fill="#231D9A"/>
<path d="M14.6147 14.9976L13.7646 15.8477L14.6147 16.6978L15.4648 15.8477L14.6147 14.9976Z" fill="#FFD400"/>
<path d="M11.1802 14.9976L10.3301 15.8476L11.1802 16.6977L12.0302 15.8476L11.1802 14.9976Z" fill="#FFD400"/>
<path d="M10.3208 19.2911L9.4707 20.1412L10.3208 20.9913L11.1709 20.1412L10.3208 19.2911Z" fill="#FFD400"/>
<path d="M12.897 24.0142L12.0469 24.8642L12.897 25.7143L13.747 24.8642L12.897 24.0142Z" fill="#FFD400"/>
<path d="M16.3325 24.0142L15.4824 24.8642L16.3325 25.7143L17.1826 24.8642L16.3325 24.0142Z" fill="#FFD400"/>
<path d="M18.9087 19.2911L18.0586 20.1412L18.9087 20.9913L19.7587 20.1412L18.9087 19.2911Z" fill="#FFD400"/>
<path d="M18.0493 14.9976L17.1992 15.8477L18.0493 16.6978L18.8994 15.8477L18.0493 14.9976Z" fill="#FFD400"/>
</g>
</g>
<defs>
<clipPath id="clip0_2025_190">
<rect x="0.875488" y="0.390625" width="41.2189" height="41.2189" rx="20.6094" fill="white"/>
</clipPath>
</defs>
</svg>
