<svg width="42" height="42" viewBox="0 0 42 42" fill="none" xmlns="http://www.w3.org/2000/svg">
<g clip-path="url(#clip0_2025_152)">
<mask id="mask0_2025_152" style="mask-type:luminance" maskUnits="userSpaceOnUse" x="0" y="0" width="42" height="42">
<path d="M41.2189 0.390625H0V41.6095H41.2189V0.390625Z" fill="white"/>
</mask>
<g mask="url(#mask0_2025_152)">
<path d="M20.6094 41.6095C31.9917 41.6095 41.2189 32.3823 41.2189 21.0001C41.2189 9.61779 31.9917 0.390625 20.6094 0.390625C9.22717 0.390625 0 9.61779 0 21.0001C0 32.3823 9.22717 41.6095 20.6094 41.6095Z" fill="#005B13"/>
<path d="M2.57617 21.0002L20.6094 8.97803L38.6427 21.0002L20.6094 33.0224L2.57617 21.0002Z" fill="#FFD400"/>
<path d="M20.6094 28.7286C24.8777 28.7286 28.3379 25.2684 28.3379 21C28.3379 16.7317 24.8777 13.2715 20.6094 13.2715C16.3411 13.2715 12.8809 16.7317 12.8809 21C12.8809 25.2684 16.3411 28.7286 20.6094 28.7286Z" fill="#231D9A"/>
<path d="M16.315 18.4238C20.8663 18.4238 24.9882 20.2701 27.9938 23.1897C28.0796 22.8892 28.1655 22.5457 28.2084 22.2022C25.0741 19.3254 20.9093 17.5651 16.315 17.5651C15.3705 17.5651 14.4688 17.6509 13.6101 17.7797C13.4813 18.0803 13.3524 18.3809 13.2236 18.7243C14.2112 18.5097 15.2417 18.4238 16.315 18.4238Z" fill="white"/>
</g>
</g>
<defs>
<clipPath id="clip0_2025_152">
<rect y="0.390625" width="41.2189" height="41.2189" rx="20.6094" fill="white"/>
</clipPath>
</defs>
</svg>
