<svg width="42" height="42" viewBox="0 0 42 42" fill="none" xmlns="http://www.w3.org/2000/svg">
<g clip-path="url(#clip0_2025_189)">
<mask id="mask0_2025_189" style="mask-type:luminance" maskUnits="userSpaceOnUse" x="0" y="0" width="42" height="42">
<path d="M41.8756 0.390625H0.656738V41.6095H41.8756V0.390625Z" fill="white"/>
</mask>
<g mask="url(#mask0_2025_189)">
<path d="M41.8756 21.0001C41.8756 32.3783 32.6443 41.6096 21.2662 41.6096C9.88803 41.6096 0.656738 32.3783 0.656738 21.0001H41.8756Z" fill="#F0263C"/>
<path d="M41.8756 21.0001C41.8756 9.62192 32.6443 0.390625 21.2661 0.390625V21.0001H41.8756Z" fill="white"/>
<path d="M21.2662 0.390625C9.88803 0.390625 0.656738 9.62192 0.656738 21.0001H21.2662V0.390625Z" fill="#231D9A"/>
<path d="M12.7651 13.2717L15.6848 11.1248H12.0781L10.9618 7.68994L9.84543 11.1248H6.23877L9.15843 13.2717L7.95625 16.7066L10.9618 14.5598L13.9673 16.7066L12.7651 13.2717Z" fill="white"/>
</g>
</g>
<defs>
<clipPath id="clip0_2025_189">
<rect x="0.656738" y="0.390625" width="41.2189" height="41.2189" rx="20.6094" fill="white"/>
</clipPath>
</defs>
</svg>
