<?xml version="1.0" encoding="UTF-8"?>
<svg id="Layer_1" data-name="Layer 1" xmlns="http://www.w3.org/2000/svg" version="1.1" xmlns:xlink="http://www.w3.org/1999/xlink" viewBox="0 0 100 57">
  <defs>
    <style>
      .cls-1 {
        fill: none;
      }

      .cls-1, .cls-2 {
        stroke-width: 0px;
      }

      .cls-3 {
        clip-path: url(#clippath);
      }

      .cls-2 {
        fill: #163300;
      }
    </style>
    <clipPath id="clippath">
      <rect class="cls-1" x="1" y="12" width="98" height="33"/>
    </clipPath>
  </defs>
  <g class="cls-3">
    <g>
      <path class="cls-2" d="M81.3,44.2h-.2V14c0-.1,0-.2.2-.2l5.5-1.1h.2v31.4h-5.7ZM12.4,44.9c-2.2,0-4.1-.5-5.9-1.5-1.7-1-3.1-2.4-4.1-4.2s-1.5-3.8-1.5-6,.5-4.2,1.5-6,2.4-3.1,4.1-4.1c1.7-1,3.7-1.5,5.9-1.5s3.3.3,4.6.9c1.1.5,1.9,1.2,2.7,2,.2.2.5,0,.5-.2v-10.9c0-.1,0-.2.2-.2l5.5-1.1h.2v32h-5.3c0,0-.5-2.5-.5-2.5,0-.2-.3-.3-.5,0-.7.8-1.6,1.5-2.6,2.1-1.2.7-2.8,1.1-4.8,1.1h0v.2ZM13.7,39.9c1.9,0,3.5-.6,4.7-1.8,1.3-1.3,1.9-2.9,1.9-4.8s-.6-3.5-1.9-4.7c-1.2-1.3-2.8-1.9-4.7-1.9s-3.5.6-4.7,1.8c-1.3,1.2-1.9,2.8-1.9,4.7s.6,3.5,1.9,4.8,2.8,1.9,4.7,1.9ZM40.9,44.9c-2.3,0-4.4-.5-6.2-1.4-1.8-1-3.2-2.3-4.3-4-1-1.7-1.5-3.7-1.5-6s.5-4.3,1.5-6.1c1-1.8,2.4-3.2,4.2-4.2,1.8-1,3.9-1.5,6.4-1.5s4.3.5,6.1,1.4c1.8,1,3.1,2.3,4.1,3.9s1.5,3.5,1.5,5.5,0,.7,0,1v1.1h-17.5c.2,1.7.8,3,1.9,3.9,1.2,1,2.5,1.5,4.2,1.5s2.2-.3,3-.8,1.4-1.1,1.8-1.9c0,0,0,0,.2,0h5.7v.2c-.4,1.3-1.1,2.5-2.1,3.5-1,1.1-2.3,2-3.8,2.7s-3.1,1-5,1l-.2.3ZM40.9,26.2c-1.5,0-2.8.4-3.9,1.2-1.1.7-1.8,1.8-2.1,3.3h0q0,.1,0,.1h11c.2,0,.3-.1.3-.3,0-1.3-.7-2.4-1.7-3.2-1-.9-2.3-1.3-3.8-1.3v.2ZM67,44.9c-2.3,0-4.4-.5-6.2-1.4-1.8-1-3.2-2.3-4.3-4-1-1.7-1.5-3.7-1.5-6s.5-4.3,1.5-6.1c1-1.8,2.4-3.2,4.2-4.2,1.8-1,3.9-1.5,6.4-1.5s4.3.5,6.1,1.4c1.8,1,3.1,2.3,4.1,3.9s1.5,3.5,1.5,5.5,0,.7,0,1v1.1c0,.1,0,0-.2,0h-17.3c.2,1.7.8,3,1.9,3.9,1.2,1,2.5,1.5,4.2,1.5s2.2-.3,3.1-.8c.8-.5,1.4-1.1,1.8-1.9,0,0,0,0,.2,0h5.6c.2,0,.3.2.2.3-.4,1.3-1.1,2.5-2.1,3.5-1,1.1-2.3,2-3.8,2.7s-3.1,1-5,1l-.4.2ZM67.1,26.2c-1.5,0-2.8.4-3.9,1.2-1.1.7-1.8,1.8-2.1,3.3h0q0,.1,0,.1h11c.2,0,.3-.1.3-.3,0-1.3-.7-2.4-1.7-3.2-1-.9-2.3-1.3-3.8-1.3v.2Z"/>
      <path class="cls-2" d="M95,44.2c2.2,0,4-1.7,4-3.9s-1.8-3.9-4-3.9-4,1.7-4,3.9,1.8,3.9,4,3.9h0Z"/>
    </g>
  </g>
</svg>