<?xml version="1.0" encoding="UTF-8"?>
<svg id="Layer_1" data-name="Layer 1" xmlns="http://www.w3.org/2000/svg" version="1.1" viewBox="0 0 100 57">
  <defs>
    <style>
      .cls-1 {
        fill: #fcfcfc;
      }

      .cls-1, .cls-2 {
        stroke-width: 0px;
      }

      .cls-2 {
        display: none;
        fill: #fff;
      }
    </style>
  </defs>
  <rect class="cls-2" x="-40" width="180" height="57"/>
  <g>
    <path class="cls-1" d="M47.6,29.2v10.5h-3.3V13.8h8.6c2.1,0,4.1.8,5.6,2.3,1.5,1.4,2.3,3.4,2.3,5.5s-.8,4.1-2.3,5.5c-1.5,1.5-3.4,2.3-5.6,2.3h-5.3ZM47.6,16.9v9h5.5c1.2,0,2.4-.5,3.2-1.4,1.8-1.7,1.8-4.5.1-6.2h-.1c-.9-1-2-1.6-3.2-1.5h-5.5Z"/>
    <path class="cls-1" d="M68.4,21.4c2.4,0,4.3.7,5.7,2,1.4,1.4,2.1,3.2,2.1,5.4v10.8h-3.1v-2.5h-.1c-1.3,2-3.2,3-5.4,3s-3.5-.6-4.8-1.7c-1.2-1.1-2-2.7-2-4.4s.7-3.3,2-4.4c1.3-1.1,3.2-1.6,5.4-1.6s3.5.3,4.7,1.1v-.8c0-1.1-.4-2.3-1.3-2.9-.9-.8-2-1.2-3.2-1.2-1.9,0-3.3.8-4.3,2.4l-2.9-1.8c1.8-2.4,4.1-3.5,7.2-3.5ZM64.2,34.3c0,.9.4,1.7,1.1,2.1.8.6,1.7.9,2.5.9,1.3,0,2.6-.6,3.6-1.6,1.1-1,1.7-2.3,1.7-3.6-1-.8-2.4-1.2-4.3-1.2s-2.4.3-3.3,1c-.9.6-1.3,1.4-1.3,2.4Z"/>
    <path class="cls-1" d="M94,22l-10.9,25.6h-3.3l4.1-8.9-7.2-16.6h3.5l5.2,12.8h.1l5.1-12.8h3.4Z"/>
    <path class="cls-1" d="M34.5,27c0-1-.1-2-.2-3h-13.8v5.8h7.8c-.3,1.8-1.3,3.5-2.9,4.5v3.7h4.7c2.8-2.6,4.3-6.4,4.3-10.9Z"/>
    <path class="cls-1" d="M20.5,41.5c4,0,7.3-1.4,9.7-3.6l-4.7-3.7c-1.3.9-3,1.5-5,1.5-3.7,0-7-2.6-8.1-6.2h-4.8v3.8c2.5,5.1,7.5,8.2,13,8.2Z"/>
    <path class="cls-1" d="M12.4,29.5c-.7-1.8-.7-3.8,0-5.8v-3.8h-4.8c-2.1,4.2-2.1,9.1,0,13.4l4.8-3.8Z"/>
    <path class="cls-1" d="M20.5,17.6c2.1,0,4.1.8,5.6,2.3l4.2-4.3c-2.6-2.5-6.2-4-9.7-3.8-5.5,0-10.6,3.2-13,8.2l4.8,3.8c1-3.6,4.3-6.2,8-6.2Z"/>
  </g>
</svg>