<?xml version="1.0" encoding="UTF-8"?>
<svg id="Layer_1" data-name="Layer 1" xmlns="http://www.w3.org/2000/svg" version="1.1" xmlns:xlink="http://www.w3.org/1999/xlink" viewBox="0 0 140 57">
  <defs>
    <style>
      .cls-1 {
        fill: #fcfcfc;
      }

      .cls-1, .cls-2, .cls-3 {
        stroke-width: 0px;
      }

      .cls-2 {
        display: none;
        fill: #fff;
      }

      .cls-3 {
        fill: none;
      }

      .cls-4 {
        clip-path: url(#clippath);
      }
    </style>
    <clipPath id="clippath">
      <rect class="cls-3" x="5" y="14" width="131" height="28"/>
    </clipPath>
  </defs>
  <rect class="cls-2" x="-20" width="180" height="57"/>
  <g class="cls-4">
    <g>
      <path class="cls-1" d="M37,34.3c0,.4-.2.7-.4,1l-6.6,6.3c0,0-.2.1-.3.2-.1,0-.2,0-.3,0-.1,0-.2-.1-.3-.2,0,0,0-.2,0-.3v-14.1l8-7.6h0v14.8Z"/>
      <path class="cls-1" d="M31.7,14.4c0,0-.1,0-.2-.1,0,0-.1,0-.2,0s-.2,0-.2,0c0,0-.1,0-.2.1l-9.9,9.4h-.1v10.9c.1,0,16.2-15.2,16.2-15.2l-5.3-5Z"/>
      <path class="cls-1" d="M4.9,34.3c0,.4.2.7.4,1l6.6,6.3c0,0,.2.1.3.2.1,0,.2,0,.3,0,.1,0,.2-.1.3-.2,0,0,0-.2,0-.3v-14.1l-8-7.6h0v14.8Z"/>
      <path class="cls-1" d="M11,14.4c0,0-.1,0-.2-.1,0,0-.1,0-.2,0s-.2,0-.2,0c0,0-.1,0-.2.1l-5.3,5,16,15.2v-10.9l-9.9-9.4Z"/>
      <path class="cls-1" d="M46.9,34.3v-14.1h4v1.9c.9-1.4,2.2-2.2,4-2.2s3.2.7,4.1,2.3c1.5-1.6,2.7-2.3,4.6-2.3,3.3,0,5.2,1.8,5.2,5.1v9.3h-4.3v-7.7c0-2-.4-2.9-2.1-2.9s-2.6,1-2.6,2.9v7.7h-4.3v-7.7c0-2-.4-2.9-2.1-2.9s-2.6,1-2.6,2.9v7.7h-4.1ZM74.1,22c2.2-2.1,5.6-2.8,8.5-1.7,1.4.5,2.7,1.5,3.5,2.7.9,1.2,1.4,2.6,1.4,4.1,0,2.1-.7,3.9-2.2,5.3-1.5,1.4-3.5,2.2-5.6,2.2-2.3,0-4.1-.7-5.6-2.3-1.4-1.4-2.2-3.3-2.2-5.2,0-1,.2-1.9.6-2.8.4-.9,1-1.7,1.7-2.4ZM79.7,30.7c1.9,0,3.5-1.6,3.5-3.5s-1.6-3.5-3.5-3.5-3.5,1.6-3.5,3.5,1.6,3.5,3.5,3.5ZM90.5,34.3v-14.1h4.2v1.9c.9-1.4,2.2-2.2,4.2-2.2,3.1,0,5.1,1.8,5.1,5.1v9.3h-4.4v-7.7c0-2-.4-2.9-2.1-2.9s-2.6,1-2.6,2.9v7.7h-4.3ZM122.7,22c2.2-2.1,5.6-2.8,8.5-1.7,1.4.5,2.7,1.5,3.5,2.7s1.4,2.6,1.4,4.1c0,2.1-.7,3.9-2.2,5.3-1.5,1.4-3.5,2.2-5.6,2.2-2.3,0-4.1-.7-5.6-2.3-1.4-1.4-2.2-3.3-2.2-5.2,0-1,.2-1.9.6-2.8.4-.9,1-1.7,1.7-2.4ZM128.2,30.7c1.9,0,3.5-1.6,3.5-3.5s-1.6-3.5-3.5-3.5-3.5,1.6-3.5,3.5,1.6,3.5,3.5,3.5ZM107.2,34.3v-2.9l6.1-7.5h-6.1v-3.6h11v3.3l-5.4,7.1h5.5v3.7h-11.2Z"/>
    </g>
  </g>
</svg>