<?xml version="1.0" encoding="UTF-8"?>
<svg id="Layer_1" data-name="Layer 1" xmlns="http://www.w3.org/2000/svg" version="1.1" viewBox="0 0 100 57">
  <defs>
    <style>
      .cls-1 {
        display: none;
        fill: #fff;
      }

      .cls-1, .cls-2 {
        stroke-width: 0px;
      }

      .cls-2 {
        fill: #fcfcfc;
        fill-rule: evenodd;
      }
    </style>
  </defs>
  <rect class="cls-1" x="-40" width="180" height="57"/>
  <path class="cls-2" d="M18,9.3h19.8v-3.3h-19.8v3.3ZM73.8,38.4c-2.9,0-4.9-2.7-5.3-6.4.9-3.1,2.8-4.7,5.1-4.7s4.6,2.3,4.6,5.5-1.9,5.6-4.5,5.6ZM74.6,24.3c-2.9,0-5,1.4-6.1,3.5,0-4.9,1.7-9.1,5.6-9.1s3.5,1.5,4,3.9l3.6-.7c-.9-4.2-3.4-6.2-7.6-6.2s-9.2,4.2-9.2,13.5,3.3,12.4,8.9,12.4,8.2-3.3,8.2-8.7-2.2-8.4-7.4-8.4ZM34.1,15.8v17.3h0c0,1.5,0,2.5.1,3.4h0c-.4-1-.8-1.9-1.4-3.1l-10-17.6h-4.6v25.3h3.5v-17.3h0c0-1.5,0-2.5-.1-3.4h0c.4,1,.8,1.9,1.4,3.1l10,17.6h4.5V15.8h-3.5ZM37.8,51h-19.8v-3.3h19.8v3.3ZM54.5,33.2c-1.2,1.2-3.8,3.4-5.7,4.7h11.1v3.3h-16.4v-3c1.9-1.4,5.8-4.4,8.3-7,2.4-2.4,3.9-4.6,3.9-7.9s-1.7-4.5-4-4.5-4.3,1.4-4.3,4.4,0,1.4.2,2.2l-3.7-.4c-.2-.7-.2-1.4-.2-2,0-3.9,2.7-7.4,8.1-7.4s7.8,2.4,7.8,7.6-3.4,8.2-4.9,9.7c0,0-.2.2-.3.3Z"/>
</svg>