<?xml version="1.0" encoding="UTF-8"?>
<svg id="Layer_1" data-name="Layer 1" xmlns="http://www.w3.org/2000/svg" version="1.1" xmlns:xlink="http://www.w3.org/1999/xlink" viewBox="0 0 140 57">
  <defs>
    <style>
      .cls-1 {
        fill: #fcfcfc;
      }

      .cls-1, .cls-2, .cls-3, .cls-4 {
        stroke-width: 0px;
      }

      .cls-2 {
        display: none;
      }

      .cls-2, .cls-4 {
        fill: #fff;
      }

      .cls-3 {
        fill: none;
      }

      .cls-5 {
        clip-path: url(#clippath);
      }

      .cls-6 {
        mask: url(#mask);
      }
    </style>
    <clipPath id="clippath">
      <rect class="cls-3" x="6" y="11" width="128" height="35"/>
    </clipPath>
    <mask id="mask" x="6" y="11" width="128.3" height="35" maskUnits="userSpaceOnUse">
      <g id="mask0_9261_13267" data-name="mask0 9261 13267">
        <path class="cls-4" d="M6,11h128v35H6V11Z"/>
      </g>
    </mask>
  </defs>
  <rect class="cls-2" x="-20" width="180" height="57"/>
  <g class="cls-5">
    <g class="cls-6">
      <g>
        <path class="cls-1" d="M14.9,22.8c-3.1,0-4.6,2.8-4.6,6.4v9.2h-4.3v-19.5h4.2v5h0c.9-3.1,2.7-5.6,5.5-5.6s2.8.7,2.8.7l-1.9,4s-.6-.3-1.8-.3ZM66.9,25.5v13h-4.2v-11.4c0-3.3-1-5-3.6-5s-3.9,2.2-3.9,6.4v10h-4.2v-11.4c0-3.1-1-5-3.5-5s-4,2.6-4,6.4v10h-4.2v-19.5h4.2v4.4h0c.7-3,2.5-4.9,5.5-4.9s5,1.7,5.7,4.6c.7-2.8,2.6-4.6,5.5-4.6s6.6,2.6,6.6,7ZM27,18.5c-3.9,0-6.4,1.9-7.6,5.3l3.6,1.3c.7-2,2-3.2,4.1-3.2s3.7,1.1,3.7,2.7-1.1,2-3.6,2.4c-2.7.5-9.3.6-9.3,6.2s2.7,5.8,6.8,5.8,5.1-1.3,6.1-3.7h0v3.2h4.2v-12c0-5.2-2.6-8.1-8-8.1ZM30.9,29.3c0,4.1-2,6.7-5.1,6.7s-3.6-1.3-3.6-3.1,1.4-2.9,4-3.4c2.7-.5,4.1-1.1,4.7-2.6v2.5ZM81.8,18.5c-3.2,0-5.3,1.8-6.2,4.5v-4h-4.5v26.9h4.4v-11.5h0c1,2.9,3,4.6,6.2,4.6,5.1,0,8.7-4.3,8.7-10.3,0-6-3.6-10.2-8.7-10.2ZM80.7,35.4c-3.5,0-5.5-2.6-5.5-6.7s2.2-6.7,5.5-6.7,5.5,2.7,5.5,6.7-2.2,6.7-5.5,6.7Z"/>
        <path class="cls-1" d="M134.3,38.4h0c0,.1-17.2.1-17.2.1h0c2.5-1.6,4.2-3,5.7-4.6h7.1l4.4,4.4ZM130,15.4l-4.4-4.4h-.1s0,8.2-7.3,15.6c-7.2,7.3-15.6,7.3-15.6,7.3h0c0,.1,4.5,4.6,4.5,4.6,0,0,8.3,0,15.7-7.3,7.3-7.4,7.3-15.8,7.3-15.8Z"/>
      </g>
    </g>
  </g>
</svg>