<?xml version="1.0" encoding="UTF-8"?>
<svg id="Layer_1" data-name="Layer 1" xmlns="http://www.w3.org/2000/svg" version="1.1" xmlns:xlink="http://www.w3.org/1999/xlink" viewBox="0 0 160 57">
  <defs>
    <style>
      .cls-1 {
        fill: #fcfcfc;
      }

      .cls-1, .cls-2, .cls-3 {
        stroke-width: 0px;
      }

      .cls-2 {
        display: none;
        fill: #fff;
      }

      .cls-3 {
        fill: none;
      }

      .cls-4 {
        clip-path: url(#clippath);
      }
    </style>
    <clipPath id="clippath">
      <rect class="cls-3" x="7" y="15" width="147" height="26"/>
    </clipPath>
  </defs>
  <rect class="cls-2" x="-10" width="180" height="57"/>
  <g class="cls-4">
    <g>
      <path class="cls-1" d="M27.9,41c7.4,0,13.4-5.8,13.4-13s-6-13-13.4-13h-14.9v2.9h14.9c5.8,0,10.4,4.5,10.4,10.1s-4.7,10.1-10.4,10.1h-11.9v-11.6H7v2.9h6v11.6h14.9ZM27.9,35.2c4.1,0,7.5-3.2,7.5-7.2s-3.3-7.2-7.5-7.2H7v2.9h20.9c2.5,0,4.5,1.9,4.5,4.3s-2,4.3-4.5,4.3h-6v-2.9h6v-2.9h-9v8.7h9Z"/>
      <path class="cls-1" d="M52.2,35.5c-1,0-1.7-.2-2.2-.6-.5-.4-.7-1-.7-1.9v-6.4h-2v-2h2v-3h3.1v3h2.3v2h-2.3v5.5c0,.5,0,.9.2,1.1.1.2.4.3.8.3s.9-.1,1.3-.4v2c-.4.1-.8.3-1.2.3-.5,0-.9.1-1.3.1Z"/>
      <path class="cls-1" d="M59.3,35.7c-1.3,0-2.3-.3-2.9-.9-.6-.6-.9-1.3-.9-2.2s.2-1.4.6-1.8c.4-.4.9-.8,1.4-1,.6-.2,1.3-.4,2.2-.5,1-.2,1.7-.3,2.2-.4.5-.1.8-.3,1-.5.2-.2.3-.5.3-.8s-.2-.7-.5-1c-.3-.2-.7-.3-1.3-.3s-1.2.2-1.6.5c-.4.4-.6.8-.6,1.2h-3.2c0-.8.4-1.5.8-2.1.4-.6,1-1,1.8-1.3.8-.3,1.7-.4,2.8-.4,1.6,0,2.8.3,3.6,1,.8.6,1.2,1.6,1.2,2.8v7.2s-2.8,0-2.8,0l-.2-1.1h0c-.5.5-1.1.9-1.7,1.2-.6.3-1.3.4-2.2.4ZM60.5,33.6c.6,0,1.2-.1,1.6-.4.4-.2.7-.6.9-1,.2-.4.3-.9.3-1.5v-.9c-.4.2-1,.4-1.8.6-.4.1-.8.2-1,.3-.6.2-1.1.4-1.4.7-.3.3-.4.6-.4.9s.2.6.5.8c.3.2.8.3,1.3.3Z"/>
      <path class="cls-1" d="M68.1,35.2v-14.5h3.1v14.5h-3.1Z"/>
      <path class="cls-1" d="M78.5,35.7c-1.3,0-2.4-.2-3.2-.7-.9-.5-1.5-1.2-2-2-.4-.9-.7-1.8-.7-3s.3-2.3.8-3.2c.5-.9,1.3-1.5,2.2-1.9.9-.4,1.9-.6,2.9-.6,1.9,0,3.4.6,4.4,1.7,1,1.1,1.5,2.7,1.5,4.8h-8.6c0,.5,0,.9.3,1.4.2.5.5.8.9,1.1.4.3.9.4,1.6.4s1.2-.2,1.6-.5c.4-.3.7-.8.8-1.3h3.2c-.1.7-.5,1.4-1,2-.6.6-1.2,1-2.1,1.4-.8.3-1.7.5-2.7.5ZM81,28.7c0-.5-.1-1-.4-1.4-.2-.4-.5-.7-.9-.9s-.8-.3-1.2-.3-.8.1-1.2.3c-.4.2-.7.5-1,.9-.3.4-.4.8-.5,1.3h5.1Z"/>
      <path class="cls-1" d="M85.8,35.2v-10.6h2.9l.2,1.1h0c.6-.6,1.2-.9,1.8-1.2.6-.2,1.3-.3,2-.3,1.1,0,1.9.3,2.6.9.6.6.9,1.6.9,2.8v7.3h-3.1v-6.3c0-.9-.1-1.6-.4-2-.3-.4-.7-.7-1.4-.7s-1,.1-1.3.4c-.4.3-.7.7-.9,1.3-.2.6-.3,1.3-.3,2.2v5.1h-3.1Z"/>
      <path class="cls-1" d="M102,35.5c-1,0-1.7-.2-2.2-.6-.5-.4-.7-1-.7-1.9v-6.4h-2v-2h2v-3h3.1v3h2.3v2h-2.3v5.5c0,.5,0,.9.2,1.1.1.2.4.3.8.3s.9-.1,1.3-.4v2c-.4.1-.8.3-1.2.3-.5,0-.9.1-1.3.1Z"/>
      <path class="cls-1" d="M110.3,35.6c-1.7,0-2.9-.5-3.8-1.6-.8-1.1-1.2-2.5-1.2-4.2s.2-2.2.7-3.1,1-1.5,1.8-1.9c.8-.4,1.6-.7,2.5-.7s1.2.1,1.7.3c.6.2,1.1.6,1.7,1.2v-4.9h3.1v14.5h-2.9l-.2-1.2h0c-.5.6-1.1,1-1.6,1.2-.5.2-1.1.4-1.8.4ZM111.2,33.6c.8,0,1.5-.3,2-.9.5-.6.7-1.5.7-2.8s-.3-2.2-.8-2.8c-.5-.6-1.1-.9-1.8-.9s-1.4.3-2,.9c-.6.6-.8,1.5-.8,2.8s.2,1.9.6,2.6c.4.7,1.1,1,2,1Z"/>
      <path class="cls-1" d="M124,35.7c-1.3,0-2.4-.2-3.2-.7-.9-.5-1.5-1.2-2-2-.4-.9-.7-1.8-.7-3s.3-2.3.8-3.2c.5-.9,1.3-1.5,2.2-1.9.9-.4,1.9-.6,2.9-.6,1.9,0,3.4.6,4.4,1.7,1,1.1,1.5,2.7,1.5,4.8h-8.6c0,.5.1.9.3,1.4.2.5.5.8.9,1.1.4.3.9.4,1.6.4s1.2-.2,1.6-.5c.4-.3.7-.8.8-1.3h3.2c-.1.7-.5,1.4-1,2-.6.6-1.2,1-2.1,1.4-.8.3-1.7.5-2.7.5ZM126.6,28.7c0-.5-.1-1-.4-1.4-.2-.4-.5-.7-.9-.9-.4-.2-.8-.3-1.2-.3s-.8.1-1.2.3-.7.5-1,.9c-.3.4-.4.8-.5,1.3h5.1Z"/>
      <path class="cls-1" d="M136.5,35.7c-1.1,0-2-.2-2.8-.5-.8-.3-1.4-.8-1.9-1.3-.5-.6-.7-1.2-.7-2h3.2c0,.6.3,1,.8,1.3.4.3,1,.4,1.7.4s.9-.1,1.2-.3c.3-.2.5-.5.5-.9s-.2-.7-.7-.9c-.5-.3-1.2-.5-2.4-.8-1.5-.4-2.6-.8-3.2-1.3-.6-.5-.9-1.2-.9-1.9s.2-1.1.6-1.6c.4-.5.9-.9,1.6-1.2.7-.3,1.5-.5,2.4-.5,1.8,0,3.1.4,4,1.1.9.7,1.3,1.6,1.4,2.7h-3.2c0-.4-.1-.7-.3-.9-.2-.3-.4-.5-.7-.6-.3-.1-.6-.2-.9-.2s-.9.1-1.1.3c-.3.2-.4.5-.4.8,0,.4.2.8.6,1,.4.3,1.1.5,2.2.7,1.4.3,2.5.7,3.2,1.2.7.5,1,1.2,1,2s-.2,1.3-.6,1.8c-.4.5-1,.9-1.8,1.2-.8.3-1.7.4-2.8.4Z"/>
      <path class="cls-1" d="M143.1,35.2v-14.5h3.1v7.9h0l3.6-4.1h3.8l-4.1,4.1,4.6,6.6h-3.8l-2.9-4.5-1.2,1.2v3.3h-3.1Z"/>
    </g>
  </g>
</svg>